<svg width="22" height="19" viewBox="0 0 22 19" fill="none" xmlns="http://www.w3.org/2000/svg">
    <mask id="path-1-inside-1_3708_7253" fill="white">
        <path d="M11 0L0 19H22L11 0ZM11 4L18.53 17H3.47L11 4ZM10 8V12H12V8H10ZM10 14V16H12V14" />
    </mask>
    <path d="M11 0L11.8654 -0.501036L11 -1.99586L10.1346 -0.501036L11 0ZM0 19L-0.865426 18.499L-1.73445 20H0V19ZM22 19V20H23.7344L22.8654 18.499L22 19ZM11 4L11.8653 3.49878L11 2.00487L10.1347 3.49878L11 4ZM18.53 17V18H20.2649L19.3953 16.4988L18.53 17ZM3.47 17L2.60468 16.4988L1.73513 18H3.47V17ZM10 8V7H9V8H10ZM10 12H9V13H10V12ZM12 12V13H13V12H12ZM12 8H13V7H12V8ZM10 16H9V17H10V16ZM12 16V17H13V16H12ZM10.1346 -0.501036L-0.865426 18.499L0.865426 19.501L11.8654 0.501036L10.1346 -0.501036ZM0 20H22V18H0V20ZM22.8654 18.499L11.8654 -0.501036L10.1346 0.501036L21.1346 19.501L22.8654 18.499ZM10.1347 4.50122L17.6647 17.5012L19.3953 16.4988L11.8653 3.49878L10.1347 4.50122ZM18.53 16H3.47V18H18.53V16ZM4.33532 17.5012L11.8653 4.50122L10.1347 3.49878L2.60468 16.4988L4.33532 17.5012ZM9 8V12H11V8H9ZM10 13H12V11H10V13ZM13 12V8H11V12H13ZM12 7H10V9H12V7ZM9 14V16H11V14H9ZM10 17H12V15H10V17ZM13 16V14H11V16H13Z" fill="#F04438" mask="url(#path-1-inside-1_3708_7253)" />
</svg>
